<svg xmlns="http://www.w3.org/2000/svg" xmlns:xlink="http://www.w3.org/1999/xlink" xmlns:lucid="lucid" width="1650.46" height="1152.18"><g transform="translate(-32.14655278534292 -44.170945311666316)" lucid:page-tab-id="HWEp-vi-RSFO"><path d="M0 0h1704.57v1322.84H0z" fill="#edf5ff"/><path d="M453.15 73.17a8 8 0 0 1 8-8h836.75a8 8 0 0 1 8 8v36.8a8 8 0 0 1-8 8H461.15a8 8 0 0 1-8-8z" stroke="#000" stroke-opacity="0" stroke-width="2" fill="#fff" fill-opacity="0"/><use xlink:href="#a" transform="matrix(1,0,0,1,457.1465527853429,69.17094531166632) translate(270.0532098765433 30.862222222222222)"/><use xlink:href="#b" transform="matrix(1,0,0,1,457.1465527853429,69.17094531166632) translate(412.3507407407408 30.862222222222222)"/><use xlink:href="#c" transform="matrix(1,0,0,1,457.1465527853429,69.17094531166632) translate(464.8223456790123 30.862222222222222)"/><path d="M729.63 110.83l309.36 5.4M729.65 110.83l-1.02-.02M1038.96 116.24l1.03.02" stroke="#a9afb8" stroke-width="2" fill="none"/><path d="M657.38 280h400v202h-400z" stroke="#333" stroke-width="2" fill="#fcfcca"/><path d="M657.38 355.2h400m-400 37.6h400" stroke="#333" stroke-width="2" fill="none"/><use xlink:href="#d" transform="matrix(1,0,0,1,665.3769547686318,288) translate(116.01296296296299 20.133333333333333)"/><use xlink:href="#e" transform="matrix(1,0,0,1,665.3769547686318,288) translate(78.12222222222223 49.73333333333333)"/><use xlink:href="#f" transform="matrix(1,0,0,1,669.3769547686318,400.8) translate(0 19.683593749999996)"/><use xlink:href="#g" transform="matrix(1,0,0,1,669.3769547686318,400.8) translate(27.73784722222222 19.683593749999996)"/><use xlink:href="#h" transform="matrix(1,0,0,1,669.3769547686318,400.8) translate(152.55815972222223 19.683593749999996)"/><use xlink:href="#f" transform="matrix(1,0,0,1,669.3769547686318,400.8) translate(0 44.04730902777777)"/><use xlink:href="#i" transform="matrix(1,0,0,1,669.3769547686318,400.8) translate(27.73784722222222 44.04730902777777)"/><use xlink:href="#h" transform="matrix(1,0,0,1,669.3769547686318,400.8) translate(180.29600694444446 44.04730902777777)"/><use xlink:href="#f" transform="matrix(1,0,0,1,669.3769547686318,400.8) translate(0 68.41102430555556)"/><use xlink:href="#j" transform="matrix(1,0,0,1,669.3769547686318,400.8) translate(27.73784722222222 68.41102430555556)"/><use xlink:href="#k" transform="matrix(1,0,0,1,669.3769547686318,400.8) translate(318.98524305555554 68.41102430555556)"/><path d="M1261.6 280h400v202h-400z" stroke="#333" stroke-width="2" fill="#fcfcca"/><path d="M1261.6 355.2h400m-400 37.6h400" stroke="#333" stroke-width="2" fill="none"/><use xlink:href="#l" transform="matrix(1,0,0,1,1269.6073567519206,288) translate(116.01296296296299 20.133333333333333)"/><use xlink:href="#m" transform="matrix(1,0,0,1,1269.6073567519206,288) translate(83.32962962962964 49.73333333333333)"/><use xlink:href="#f" transform="matrix(1,0,0,1,1273.6073567519206,400.8) translate(0 19.683593749999996)"/><use xlink:href="#n" transform="matrix(1,0,0,1,1273.6073567519206,400.8) translate(27.73784722222222 19.683593749999996)"/><use xlink:href="#h" transform="matrix(1,0,0,1,1273.6073567519206,400.8) translate(249.64062500000003 19.683593749999996)"/><use xlink:href="#f" transform="matrix(1,0,0,1,1273.6073567519206,400.8) translate(0 44.04730902777777)"/><use xlink:href="#o" transform="matrix(1,0,0,1,1273.6073567519206,400.8) translate(27.73784722222222 44.04730902777777)"/><use xlink:href="#h" transform="matrix(1,0,0,1,1273.6073567519206,400.8) translate(305.11631944444446 44.04730902777777)"/><use xlink:href="#f" transform="matrix(1,0,0,1,1273.6073567519206,400.8) translate(0 68.41102430555556)"/><use xlink:href="#p" transform="matrix(1,0,0,1,1273.6073567519206,400.8) translate(27.73784722222222 68.41102430555556)"/><use xlink:href="#q" transform="matrix(1,0,0,1,1273.6073567519206,400.8) translate(291.24739583333337 68.41102430555556)"/><path d="M53.15 280h400v202h-400z" stroke="#333" stroke-width="2" fill="#fcfcca"/><path d="M53.15 355.2h400m-400 37.6h400" stroke="#333" stroke-width="2" fill="none"/><use xlink:href="#r" transform="matrix(1,0,0,1,61.14655278534292,288) translate(116.01296296296299 20.133333333333333)"/><use xlink:href="#s" transform="matrix(1,0,0,1,61.14655278534292,288) translate(79.937962962963 49.73333333333333)"/><use xlink:href="#f" transform="matrix(1,0,0,1,65.14655278534292,400.8) translate(0 19.683593749999996)"/><use xlink:href="#t" transform="matrix(1,0,0,1,65.14655278534292,400.8) translate(27.73784722222222 19.683593749999996)"/><use xlink:href="#h" transform="matrix(1,0,0,1,65.14655278534292,400.8) translate(152.55815972222223 19.683593749999996)"/><use xlink:href="#f" transform="matrix(1,0,0,1,65.14655278534292,400.8) translate(0 44.04730902777777)"/><use xlink:href="#u" transform="matrix(1,0,0,1,65.14655278534292,400.8) translate(27.73784722222222 44.04730902777777)"/><use xlink:href="#h" transform="matrix(1,0,0,1,65.14655278534292,400.8) translate(166.42708333333334 44.04730902777777)"/><use xlink:href="#f" transform="matrix(1,0,0,1,65.14655278534292,400.8) translate(0 68.41102430555556)"/><use xlink:href="#v" transform="matrix(1,0,0,1,65.14655278534292,400.8) translate(27.73784722222222 68.41102430555556)"/><use xlink:href="#k" transform="matrix(1,0,0,1,65.14655278534292,400.8) translate(305.11631944444446 68.41102430555556)"/><path d="M126.54 804h253.2v124h-253.2z" stroke="#333" stroke-width="2" fill="#f4d9ff"/><path d="M126.54 849.6h253.2m-253.2 37.6h253.2" stroke="#333" stroke-width="2" fill="none"/><g><use xlink:href="#w" transform="matrix(1,0,0,1,134.54164345300666,812) translate(92.3462962962963 19.933333333333334)"/></g><path d="M1335 804h253.2v124H1335z" stroke="#333" stroke-width="2" fill="#f4d9ff"/><path d="M1335 849.6h253.2M1335 887.2h253.2" stroke="#333" stroke-width="2" fill="none"/><g><use xlink:href="#x" transform="matrix(1,0,0,1,1343.0024474195843,812) translate(10.329629629629636 19.933333333333334)"/></g><path d="M465.4 1051.35h269.53v124H465.4z" stroke="#333" stroke-width="2" fill="#c3f7c8"/><path d="M465.4 1096.95h269.53m-269.52 37.6h269.53" stroke="#333" stroke-width="2" fill="none"/><g><use xlink:href="#y" transform="matrix(1,0,0,1,473.40831495072905,1059.3520623590216) translate(69.61574074074075 19.933333333333334)"/></g><path d="M825.68 804h253.2v124H825.7z" stroke="#333" stroke-width="2" fill="#f4d9ff"/><path d="M825.68 849.6h253.2m-253.2 37.6h253.2" stroke="#333" stroke-width="2" fill="none"/><g><use xlink:href="#z" transform="matrix(1,0,0,1,833.6832744868482,812) translate(5.053703703703732 19.933333333333334)"/></g><path d="M253.15 802.5V506" stroke="#333" fill="none"/><path d="M253.65 803h-1v-.5h1z" stroke="#333" stroke-width=".05" fill="#333"/><path d="M253.15 483.98l12.72 21.52h-25.45z" stroke="#333" fill="#fff"/><path d="M515.1 1049.85V642a12 12 0 0 0-12-12H376.23a12 12 0 0 1-12-12V506" stroke="#333" fill="none"/><path d="M515.6 1050.35h-1v-.5h1z" stroke="#333" stroke-width=".05" fill="#333"/><path d="M364.23 483.98l12.73 21.52H351.5z" stroke="#333" fill="#fff"/><path d="M686.35 1049.85V732a12 12 0 0 1 12-12h639.2a12 12 0 0 0 12-12V506" stroke="#333" fill="none"/><path d="M686.85 1050.35h-1v-.5h1z" stroke="#333" stroke-width=".05" fill="#333"/><path d="M1349.55 483.98l12.73 21.52h-25.45z" stroke="#333" fill="#fff"/><path d="M599.68 1049.85V642a12 12 0 0 1 12-12h124.55a12 12 0 0 0 12-12V506" stroke="#333" fill="none"/><path d="M600.18 1050.35h-1v-.5h1z" stroke="#333" stroke-width=".05" fill="#333"/><path d="M748.23 483.98l12.72 21.52H735.5z" stroke="#333" fill="#fff"/><path d="M952.3 802.5v-82.42a.08.08 0 0 1 .07-.08.08.08 0 0 0 .08-.08V506" stroke="#333" fill="none"/><path d="M952.8 803h-1v-.5h1z" stroke="#333" stroke-width=".05" fill="#333"/><path d="M952.45 483.98l12.73 21.52h-25.45z" stroke="#333" fill="#fff"/><path d="M1459.28 802.5v-80.84a.66.66 0 0 0-.67-.66.66.66 0 0 1-.65-.66V506" stroke="#333" fill="none"/><path d="M1459.78 803h-1v-.5h1z" stroke="#333" stroke-width=".05" fill="#333"/><path d="M1457.95 483.98l12.73 21.52h-25.46z" stroke="#333" fill="#fff"/><defs><path d="M67-125c0 53 21 87 73 88 37 1 54-22 65-47l45 17C233-25 199 4 140 4 58 4 20-42 15-125 8-235 124-281 211-232c18 10 29 29 36 50l-46 12c-8-25-30-41-62-41-52 0-71 34-72 86" id="A"/><path d="M25 0v-261h50V0H25" id="B"/><path d="M133-34C117-15 103 5 69 4 32 3 11-16 11-54c-1-60 55-63 116-61 1-26-3-47-28-47-18 1-26 9-28 27l-52-2c7-38 36-58 82-57s74 22 75 68l1 82c-1 14 12 18 25 15v27c-30 8-71 5-69-32zm-48 3c29 0 43-24 42-57-32 0-66-3-65 30 0 17 8 27 23 27" id="C"/><path d="M137-138c1-29-70-34-71-4 15 46 118 7 119 86 1 83-164 76-172 9l43-7c4 19 20 25 44 25 33 8 57-30 24-41C81-84 22-81 20-136c-2-80 154-74 161-7" id="D"/><path d="M185-48c-13 30-37 53-82 52C43 2 14-33 14-96s30-98 90-98c62 0 83 45 84 108H66c0 31 8 55 39 56 18 0 30-7 34-22zm-45-69c5-46-57-63-70-21-2 6-4 13-4 21h74" id="E"/><g id="a"><use transform="matrix(0.09753086419753083,0,0,0.09753086419753083,0,0)" xlink:href="#A"/><use transform="matrix(0.09753086419753083,0,0,0.09753086419753083,25.260493827160484,0)" xlink:href="#B"/><use transform="matrix(0.09753086419753083,0,0,0.09753086419753083,35.01358024691357,0)" xlink:href="#C"/><use transform="matrix(0.09753086419753083,0,0,0.09753086419753083,54.51975308641973,0)" xlink:href="#D"/><use transform="matrix(0.09753086419753083,0,0,0.09753086419753083,74.0259259259259,0)" xlink:href="#D"/><use transform="matrix(0.09753086419753083,0,0,0.09753086419753083,93.53209876543207,0)" xlink:href="#E"/><use transform="matrix(0.09753086419753083,0,0,0.09753086419753083,113.03827160493823,0)" xlink:href="#D"/></g><path d="M88-194c31-1 46 15 58 34l-1-101h50l1 261h-48c-2-10 0-23-3-31C134-8 116 4 84 4 32 4 16-41 15-95c0-56 19-97 73-99zm17 164c33 0 40-30 41-66 1-37-9-64-41-64s-38 30-39 65c0 43 13 65 39 65" id="F"/><path d="M110-194c64 0 96 36 96 99 0 64-35 99-97 99-61 0-95-36-95-99 0-62 34-99 96-99zm-1 164c35 0 45-28 45-65 0-40-10-65-43-65-34 0-45 26-45 65 0 36 10 65 43 65" id="G"/><g id="b"><use transform="matrix(0.09753086419753083,0,0,0.09753086419753083,0,0)" xlink:href="#F"/><use transform="matrix(0.09753086419753083,0,0,0.09753086419753083,21.359259259259254,0)" xlink:href="#G"/></g><path d="M25-224v-37h50v37H25zM25 0v-190h50V0H25" id="H"/><path d="M24-248c93 1 206-16 204 79-1 75-69 88-152 82V0H24v-248zm52 121c47 0 100 7 100-41 0-47-54-39-100-39v80" id="I"/><path d="M114-157C55-157 80-60 75 0H25v-261h50l-1 109c12-26 28-41 61-42 86-1 58 113 63 194h-50c-7-57 23-157-34-157" id="J"/><path d="M135-194c87-1 58 113 63 194h-50c-7-57 23-157-34-157-59 0-34 97-39 157H25l-1-190h47c2 12-1 28 3 38 12-26 28-41 61-42" id="K"/><g id="c"><use transform="matrix(0.09753086419753083,0,0,0.09753086419753083,0,0)" xlink:href="#H"/><use transform="matrix(0.09753086419753083,0,0,0.09753086419753083,9.753086419753084,0)" xlink:href="#I"/><use transform="matrix(0.09753086419753083,0,0,0.09753086419753083,33.16049382716049,0)" xlink:href="#J"/><use transform="matrix(0.09753086419753083,0,0,0.09753086419753083,54.51975308641973,0)" xlink:href="#G"/><use transform="matrix(0.09753086419753083,0,0,0.09753086419753083,75.879012345679,0)" xlink:href="#K"/><use transform="matrix(0.09753086419753083,0,0,0.09753086419753083,97.23827160493826,0)" xlink:href="#E"/></g><path fill="#333" d="M18-100v-36l175-74v27L42-118l151 64v27" id="L"/><path fill="#333" d="M24-231v-30h32v30H24zM24 0v-190h32V0H24" id="M"/><path fill="#333" d="M117-194c89-4 53 116 60 194h-32v-121c0-31-8-49-39-48C34-167 62-67 57 0H25l-1-190h30c1 10-1 24 2 32 11-22 29-35 61-36" id="N"/><path fill="#333" d="M59-47c-2 24 18 29 38 22v24C64 9 27 4 27-40v-127H5v-23h24l9-43h21v43h35v23H59v120" id="O"/><path fill="#333" d="M100-194c63 0 86 42 84 106H49c0 40 14 67 53 68 26 1 43-12 49-29l28 8c-11 28-37 45-77 45C44 4 14-33 15-96c1-61 26-98 85-98zm52 81c6-60-76-77-97-28-3 7-6 17-6 28h103" id="P"/><path fill="#333" d="M114-163C36-179 61-72 57 0H25l-1-190h30c1 12-1 29 2 39 6-27 23-49 58-41v29" id="Q"/><path fill="#333" d="M101-234c-31-9-42 10-38 44h38v23H63V0H32v-167H5v-23h27c-7-52 17-82 69-68v24" id="R"/><path fill="#333" d="M141-36C126-15 110 5 73 4 37 3 15-17 15-53c-1-64 63-63 125-63 3-35-9-54-41-54-24 1-41 7-42 31l-33-3c5-37 33-52 76-52 45 0 72 20 72 64v82c-1 20 7 32 28 27v20c-31 9-61-2-59-35zM48-53c0 20 12 33 32 33 41-3 63-29 60-74-43 2-92-5-92 41" id="S"/><path fill="#333" d="M96-169c-40 0-48 33-48 73s9 75 48 75c24 0 41-14 43-38l32 2c-6 37-31 61-74 61-59 0-76-41-82-99-10-93 101-131 147-64 4 7 5 14 7 22l-32 3c-4-21-16-35-41-35" id="T"/><path fill="#333" d="M18-27v-27l151-64-151-65v-27l175 74v36" id="U"/><g id="d"><use transform="matrix(0.0685185185185185,0,0,0.0685185185185185,0,0)" xlink:href="#L"/><use transform="matrix(0.0685185185185185,0,0,0.0685185185185185,14.388888888888886,0)" xlink:href="#L"/><use transform="matrix(0.0685185185185185,0,0,0.0685185185185185,28.77777777777777,0)" xlink:href="#M"/><use transform="matrix(0.0685185185185185,0,0,0.0685185185185185,34.190740740740736,0)" xlink:href="#N"/><use transform="matrix(0.0685185185185185,0,0,0.0685185185185185,47.89444444444444,0)" xlink:href="#O"/><use transform="matrix(0.0685185185185185,0,0,0.0685185185185185,54.746296296296286,0)" xlink:href="#P"/><use transform="matrix(0.0685185185185185,0,0,0.0685185185185185,68.44999999999999,0)" xlink:href="#Q"/><use transform="matrix(0.0685185185185185,0,0,0.0685185185185185,76.60370370370369,0)" xlink:href="#R"/><use transform="matrix(0.0685185185185185,0,0,0.0685185185185185,83.45555555555553,0)" xlink:href="#S"/><use transform="matrix(0.0685185185185185,0,0,0.0685185185185185,97.15925925925923,0)" xlink:href="#T"/><use transform="matrix(0.0685185185185185,0,0,0.0685185185185185,109.49259259259256,0)" xlink:href="#P"/><use transform="matrix(0.0685185185185185,0,0,0.0685185185185185,123.19629629629625,0)" xlink:href="#U"/><use transform="matrix(0.0685185185185185,0,0,0.0685185185185185,137.58518518518514,0)" xlink:href="#U"/></g><path fill="#333" d="M199 0l-22-63H83L61 0H9l90-248h61L250 0h-51zm-33-102l-36-108c-10 38-24 72-36 108h72" id="V"/><path fill="#333" d="M135-194c53 0 70 44 70 98 0 56-19 98-73 100-31 1-45-17-59-34 3 33 2 69 2 105H25l-1-265h48c2 10 0 23 3 31 11-24 29-35 60-35zM114-30c33 0 39-31 40-66 0-38-9-64-40-64-56 0-55 130 0 130" id="W"/><path fill="#333" d="M133-34C117-15 103 5 69 4 32 3 11-16 11-54c-1-60 55-63 116-61 1-26-3-47-28-47-18 1-26 9-28 27l-52-2c7-38 36-58 82-57s74 22 75 68l1 82c-1 14 12 18 25 15v27c-30 8-71 5-69-32zm-48 3c29 0 43-24 42-57-32 0-66-3-65 30 0 17 8 27 23 27" id="X"/><path fill="#333" d="M135-150c-39-12-60 13-60 57V0H25l-1-190h47c2 13-1 29 3 40 6-28 27-53 61-41v41" id="Y"/><path fill="#333" d="M185-48c-13 30-37 53-82 52C43 2 14-33 14-96s30-98 90-98c62 0 83 45 84 108H66c0 31 8 55 39 56 18 0 30-7 34-22zm-45-69c5-46-57-63-70-21-2 6-4 13-4 21h74" id="Z"/><path fill="#333" d="M25 0v-261h50V0H25" id="aa"/><path fill="#333" d="M114-157C55-157 80-60 75 0H25v-261h50l-1 109c12-26 28-41 61-42 86-1 58 113 63 194h-50c-7-57 23-157-34-157" id="ab"/><path fill="#333" d="M110-194c64 0 96 36 96 99 0 64-35 99-97 99-61 0-95-36-95-99 0-62 34-99 96-99zm-1 164c35 0 45-28 45-65 0-40-10-65-43-65-34 0-45 26-45 65 0 36 10 65 43 65" id="ac"/><path fill="#333" d="M136-208V0H84v-208H4v-40h212v40h-80" id="ad"/><path fill="#333" d="M121-226c-27-7-43 5-38 36h38v33H83V0H34v-157H6v-33h28c-9-59 32-81 87-68v32" id="ae"/><path fill="#333" d="M135-194c87-1 58 113 63 194h-50c-7-57 23-157-34-157-59 0-34 97-39 157H25l-1-190h47c2 12-1 28 3 38 12-26 28-41 61-42" id="af"/><path fill="#333" d="M25-224v-37h50v37H25zM25 0v-190h50V0H25" id="ag"/><path fill="#333" d="M190-63c-7 42-38 67-86 67-59 0-84-38-90-98-12-110 154-137 174-36l-49 2c-2-19-15-32-35-32-30 0-35 28-38 64-6 74 65 87 74 30" id="ah"/><g id="e"><use transform="matrix(0.0685185185185185,0,0,0.0685185185185185,0,0)" xlink:href="#V"/><use transform="matrix(0.0685185185185185,0,0,0.0685185185185185,17.746296296296293,0)" xlink:href="#W"/><use transform="matrix(0.0685185185185185,0,0,0.0685185185185185,32.751851851851846,0)" xlink:href="#X"/><use transform="matrix(0.0685185185185185,0,0,0.0685185185185185,46.45555555555555,0)" xlink:href="#Y"/><use transform="matrix(0.0685185185185185,0,0,0.0685185185185185,56.048148148148144,0)" xlink:href="#Z"/><use transform="matrix(0.0685185185185185,0,0,0.0685185185185185,69.75185185185184,0)" xlink:href="#aa"/><use transform="matrix(0.0685185185185185,0,0,0.0685185185185185,76.60370370370369,0)" xlink:href="#ab"/><use transform="matrix(0.0685185185185185,0,0,0.0685185185185185,91.60925925925923,0)" xlink:href="#ac"/><use transform="matrix(0.0685185185185185,0,0,0.0685185185185185,106.61481481481479,0)" xlink:href="#ad"/><use transform="matrix(0.0685185185185185,0,0,0.0685185185185185,119.77037037037036,0)" xlink:href="#Z"/><use transform="matrix(0.0685185185185185,0,0,0.0685185185185185,133.47407407407405,0)" xlink:href="#aa"/><use transform="matrix(0.0685185185185185,0,0,0.0685185185185185,140.3259259259259,0)" xlink:href="#Z"/><use transform="matrix(0.0685185185185185,0,0,0.0685185185185185,154.0296296296296,0)" xlink:href="#ae"/><use transform="matrix(0.0685185185185185,0,0,0.0685185185185185,162.1833333333333,0)" xlink:href="#ac"/><use transform="matrix(0.0685185185185185,0,0,0.0685185185185185,177.18888888888887,0)" xlink:href="#af"/><use transform="matrix(0.0685185185185185,0,0,0.0685185185185185,192.19444444444443,0)" xlink:href="#ag"/><use transform="matrix(0.0685185185185185,0,0,0.0685185185185185,199.04629629629625,0)" xlink:href="#ah"/><use transform="matrix(0.0685185185185185,0,0,0.0685185185185185,212.74999999999997,0)" xlink:href="#ac"/></g><path d="M687-608v428H540v-428H116v-146h424v-428h147v428h424v146H687" id="ai"/><use transform="matrix(0.011284722222222222,0,0,0.011284722222222222,0,0)" xlink:href="#ai" id="f"/><path d="M736-142h380V0H134v-142h422v-1200H267v-142h469v1342" id="aj"/><path d="M745-142h380V0H143v-142h422v-798H246v-142h499v940zM545-1292v-192h200v192H545" id="ak"/><path d="M1048-32c-2 300-135 456-433 456-222-1-358-88-400-267l184-25c22 99 100 157 222 156 184-2 248-125 248-315 0-64 3-133-2-194C807-100 706-13 524-12c-306 0-381-228-381-537 0-318 85-550 400-550 164 0 271 83 325 202h3c1-60 3-134 12-185h171c-13 339-4 702-6 1050zM585-145c210-8 284-178 284-406 0-192-52-331-177-392-33-16-69-22-104-22-223 2-259 184-259 414 0 229 31 415 256 406" id="al"/><path d="M1000-272c3 95 12 159 101 161 21 0 41-3 59-7V-6c-44 10-86 16-139 16-141 2-191-84-197-217h-6C748-76 648 20 446 20c-207 0-318-120-318-322 0-266 194-348 454-354l236-4c12-191-40-305-222-305-140 0-220 47-232 172l-188-17c33-204 181-292 423-292 255 0 401 118 401 364v466zm-683-27c0 109 63 184 175 182 166-3 259-96 306-217 24-65 20-120 20-200-232 7-501-28-501 235" id="am"/><path d="M839-1102c70 0 148 7 206 17v167c-112-18-268-36-363 15-129 69-208 203-208 395V0H294c-10-367 32-789-52-1082h171c21 75 41 161 48 250h5c67-152 152-270 373-270" id="an"/><path d="M891-1484c-201 251-362 514-362 954 0 441 161 704 362 955H701C500 176 342-90 342-532c0-440 159-704 359-952h190" id="ao"/><path d="M528-1484c201 248 357 511 357 952 0 442-156 709-357 957H336C537 174 700-89 700-530c0-440-163-703-364-954h192" id="ap"/><path d="M496 0v-299h235V0H496zm0-783v-299h235v299H496" id="aq"/><g id="g"><use transform="matrix(0.011284722222222222,0,0,0.011284722222222222,0,0)" xlink:href="#aj"/><use transform="matrix(0.011284722222222222,0,0,0.011284722222222222,13.86892361111111,0)" xlink:href="#ak"/><use transform="matrix(0.011284722222222222,0,0,0.011284722222222222,27.73784722222222,0)" xlink:href="#al"/><use transform="matrix(0.011284722222222222,0,0,0.011284722222222222,41.60677083333333,0)" xlink:href="#am"/><use transform="matrix(0.011284722222222222,0,0,0.011284722222222222,55.47569444444444,0)" xlink:href="#an"/><use transform="matrix(0.011284722222222222,0,0,0.011284722222222222,69.34461805555556,0)" xlink:href="#ao"/><use transform="matrix(0.011284722222222222,0,0,0.011284722222222222,83.21354166666667,0)" xlink:href="#ap"/><use transform="matrix(0.011284722222222222,0,0,0.011284722222222222,97.08246527777777,0)" xlink:href="#aq"/></g><path d="M715 0H502L69-1082h202c94 253 197 500 285 758 19 57 36 126 52 183 96-335 234-626 350-941h201" id="ar"/><path d="M615-1102c343 0 484 203 482 560-1 347-147 562-488 562-336 0-475-219-479-562-4-349 156-560 485-560zm-8 989c240 0 301-180 301-429 0-245-55-427-290-427-236 0-299 181-299 427 0 243 61 429 288 429" id="as"/><path d="M865-914c-3-187-2-380-2-570h180v1261c0 76 1 155 6 223H877c-8-49-9-116-10-174h-5C801-44 708 26 530 26c-135 0-234-46-297-139s-95-232-95-419c0-377 131-566 392-566 176 0 271 63 335 184zm-286-51c-222 0-255 197-255 427 0 229 31 425 253 425 237 0 286-195 286-441 0-238-52-411-284-411" id="at"/><g id="h"><use transform="matrix(0.011284722222222222,0,0,0.011284722222222222,0,0)" xlink:href="#ar"/><use transform="matrix(0.011284722222222222,0,0,0.011284722222222222,13.86892361111111,0)" xlink:href="#as"/><use transform="matrix(0.011284722222222222,0,0,0.011284722222222222,27.73784722222222,0)" xlink:href="#ak"/><use transform="matrix(0.011284722222222222,0,0,0.011284722222222222,41.60677083333333,0)" xlink:href="#at"/></g><path d="M682 16c-209 0-323-80-324-285v-671H190v-142h170l58-282h120v282h432v142H538v652c2 114 60 155 182 155 106 0 209-16 297-34v137C921-4 806 16 682 16" id="au"/><path d="M617-1102c355 0 481 238 477 599H322c5 222 84 388 301 388 144 0 244-59 284-166l158 45C1002-72 854 20 623 20c-342 0-490-220-490-568 0-346 151-554 484-554zm291 461c-18-192-90-328-289-328-194 0-287 128-295 328h584" id="av"/><path d="M706-1102c241 0 344 136 343 381V0H868v-695c1-168-57-273-220-268-190 6-283 138-283 336V0H185c-3-360 6-732-6-1082h170c4 54 7 126 8 185h3c63-121 164-204 346-205" id="aw"/><g id="i"><use transform="matrix(0.011284722222222222,0,0,0.011284722222222222,0,0)" xlink:href="#am"/><use transform="matrix(0.011284722222222222,0,0,0.011284722222222222,13.86892361111111,0)" xlink:href="#au"/><use transform="matrix(0.011284722222222222,0,0,0.011284722222222222,27.73784722222222,0)" xlink:href="#av"/><use transform="matrix(0.011284722222222222,0,0,0.011284722222222222,41.60677083333333,0)" xlink:href="#aw"/><use transform="matrix(0.011284722222222222,0,0,0.011284722222222222,55.47569444444444,0)" xlink:href="#at"/><use transform="matrix(0.011284722222222222,0,0,0.011284722222222222,69.34461805555556,0)" xlink:href="#av"/><use transform="matrix(0.011284722222222222,0,0,0.011284722222222222,83.21354166666667,0)" xlink:href="#an"/><use transform="matrix(0.011284722222222222,0,0,0.011284722222222222,97.08246527777777,0)" xlink:href="#ao"/><use transform="matrix(0.011284722222222222,0,0,0.011284722222222222,110.95138888888891,0)" xlink:href="#ap"/><use transform="matrix(0.011284722222222222,0,0,0.011284722222222222,124.82031250000001,0)" xlink:href="#aq"/></g><path d="M631 20c-350 0-501-215-501-562 0-355 162-560 502-560 250 0 399 118 446 323l-192 14c-23-124-109-196-262-196-242 0-305 171-305 415 1 245 61 427 304 427 151 0 248-77 267-215l190 12C1039-107 883 20 631 20" id="ax"/><path d="M650-1214c-281 0-336 244-336 533 0 295 60 546 347 546 188 0 263-142 322-282l159 65C1058-155 935 20 659 20c-401 0-546-295-546-701 0-407 135-689 536-689 264 0 391 146 466 335l-168 65c-47-129-127-244-297-244" id="ay"/><path d="M713 0H515L10-1349h201C345-955 498-579 615-168c116-411 269-787 402-1181h201" id="az"/><path d="M147 0v-137l681-806H187v-139h844v137L349-139h719V0H147" id="aA"/><g id="j"><use transform="matrix(0.011284722222222222,0,0,0.011284722222222222,0,0)" xlink:href="#ak"/><use transform="matrix(0.011284722222222222,0,0,0.011284722222222222,13.86892361111111,0)" xlink:href="#aw"/><use transform="matrix(0.011284722222222222,0,0,0.011284722222222222,27.73784722222222,0)" xlink:href="#ak"/><use transform="matrix(0.011284722222222222,0,0,0.011284722222222222,41.60677083333333,0)" xlink:href="#ax"/><use transform="matrix(0.011284722222222222,0,0,0.011284722222222222,55.47569444444444,0)" xlink:href="#ak"/><use transform="matrix(0.011284722222222222,0,0,0.011284722222222222,69.34461805555556,0)" xlink:href="#am"/><use transform="matrix(0.011284722222222222,0,0,0.011284722222222222,83.21354166666667,0)" xlink:href="#an"/><use transform="matrix(0.011284722222222222,0,0,0.011284722222222222,97.08246527777777,0)" xlink:href="#ay"/><use transform="matrix(0.011284722222222222,0,0,0.011284722222222222,110.95138888888891,0)" xlink:href="#as"/><use transform="matrix(0.011284722222222222,0,0,0.011284722222222222,124.82031250000001,0)" xlink:href="#an"/><use transform="matrix(0.011284722222222222,0,0,0.011284722222222222,138.68923611111111,0)" xlink:href="#an"/><use transform="matrix(0.011284722222222222,0,0,0.011284722222222222,152.55815972222223,0)" xlink:href="#av"/><use transform="matrix(0.011284722222222222,0,0,0.011284722222222222,166.42708333333334,0)" xlink:href="#ak"/><use transform="matrix(0.011284722222222222,0,0,0.011284722222222222,180.29600694444446,0)" xlink:href="#as"/><use transform="matrix(0.011284722222222222,0,0,0.011284722222222222,194.16493055555554,0)" xlink:href="#az"/><use transform="matrix(0.011284722222222222,0,0,0.011284722222222222,208.0338541666667,0)" xlink:href="#as"/><use transform="matrix(0.011284722222222222,0,0,0.011284722222222222,221.90277777777783,0)" xlink:href="#aA"/><use transform="matrix(0.011284722222222222,0,0,0.011284722222222222,235.7717013888889,0)" xlink:href="#ao"/><use transform="matrix(0.011284722222222222,0,0,0.011284722222222222,249.64062500000003,0)" xlink:href="#ap"/><use transform="matrix(0.011284722222222222,0,0,0.011284722222222222,263.50954861111114,0)" xlink:href="#aq"/></g><g id="k"><use transform="matrix(0.011284722222222222,0,0,0.011284722222222222,0,0)" xlink:href="#ar"/><use transform="matrix(0.011284722222222222,0,0,0.011284722222222222,13.86892361111111,0)" xlink:href="#as"/><use transform="matrix(0.011284722222222222,0,0,0.011284722222222222,27.73784722222222,0)" xlink:href="#ak"/><use transform="matrix(0.011284722222222222,0,0,0.011284722222222222,41.60677083333333,0)" xlink:href="#at"/></g><g id="l"><use transform="matrix(0.0685185185185185,0,0,0.0685185185185185,0,0)" xlink:href="#L"/><use transform="matrix(0.0685185185185185,0,0,0.0685185185185185,14.388888888888886,0)" xlink:href="#L"/><use transform="matrix(0.0685185185185185,0,0,0.0685185185185185,28.77777777777777,0)" xlink:href="#M"/><use transform="matrix(0.0685185185185185,0,0,0.0685185185185185,34.190740740740736,0)" xlink:href="#N"/><use transform="matrix(0.0685185185185185,0,0,0.0685185185185185,47.89444444444444,0)" xlink:href="#O"/><use transform="matrix(0.0685185185185185,0,0,0.0685185185185185,54.746296296296286,0)" xlink:href="#P"/><use transform="matrix(0.0685185185185185,0,0,0.0685185185185185,68.44999999999999,0)" xlink:href="#Q"/><use transform="matrix(0.0685185185185185,0,0,0.0685185185185185,76.60370370370369,0)" xlink:href="#R"/><use transform="matrix(0.0685185185185185,0,0,0.0685185185185185,83.45555555555553,0)" xlink:href="#S"/><use transform="matrix(0.0685185185185185,0,0,0.0685185185185185,97.15925925925923,0)" xlink:href="#T"/><use transform="matrix(0.0685185185185185,0,0,0.0685185185185185,109.49259259259256,0)" xlink:href="#P"/><use transform="matrix(0.0685185185185185,0,0,0.0685185185185185,123.19629629629625,0)" xlink:href="#U"/><use transform="matrix(0.0685185185185185,0,0,0.0685185185185185,137.58518518518514,0)" xlink:href="#U"/></g><path fill="#333" d="M175 0L67-191c6 58 2 128 3 191H24v-248h59L193-55c-6-58-2-129-3-193h46V0h-61" id="aB"/><path fill="#333" d="M128 0H69L1-190h53L99-40l48-150h52" id="aC"/><path fill="#333" d="M195-6C206 82 75 100 31 46c-4-6-6-13-8-21l49-6c3 16 16 24 34 25 40 0 42-37 40-79-11 22-30 35-61 35-53 0-70-43-70-97 0-56 18-96 73-97 30 0 46 14 59 34l2-30h47zm-90-29c32 0 41-27 41-63 0-35-9-62-40-62-32 0-39 29-40 63 0 36 9 62 39 62" id="aD"/><path fill="#333" d="M88-194c31-1 46 15 58 34l-1-101h50l1 261h-48c-2-10 0-23-3-31C134-8 116 4 84 4 32 4 16-41 15-95c0-56 19-97 73-99zm17 164c33 0 40-30 41-66 1-37-9-64-41-64s-38 30-39 65c0 43 13 65 39 65" id="aE"/><path fill="#333" d="M24 0v-248h52V0H24" id="aF"/><path fill="#333" d="M115-3C79 11 28 4 28-45v-112H4v-33h27l15-45h31v45h36v33H77v99c-1 23 16 31 38 25v30" id="aG"/><g id="m"><use transform="matrix(0.0685185185185185,0,0,0.0685185185185185,0,0)" xlink:href="#aB"/><use transform="matrix(0.0685185185185185,0,0,0.0685185185185185,17.746296296296293,0)" xlink:href="#X"/><use transform="matrix(0.0685185185185185,0,0,0.0685185185185185,31.449999999999996,0)" xlink:href="#aC"/><use transform="matrix(0.0685185185185185,0,0,0.0685185185185185,45.1537037037037,0)" xlink:href="#Z"/><use transform="matrix(0.0685185185185185,0,0,0.0685185185185185,58.8574074074074,0)" xlink:href="#aD"/><use transform="matrix(0.0685185185185185,0,0,0.0685185185185185,73.86296296296295,0)" xlink:href="#X"/><use transform="matrix(0.0685185185185185,0,0,0.0685185185185185,87.56666666666665,0)" xlink:href="#aE"/><use transform="matrix(0.0685185185185185,0,0,0.0685185185185185,102.5722222222222,0)" xlink:href="#ac"/><use transform="matrix(0.0685185185185185,0,0,0.0685185185185185,117.57777777777775,0)" xlink:href="#Y"/><use transform="matrix(0.0685185185185185,0,0,0.0685185185185185,127.17037037037035,0)" xlink:href="#aF"/><use transform="matrix(0.0685185185185185,0,0,0.0685185185185185,134.0222222222222,0)" xlink:href="#af"/><use transform="matrix(0.0685185185185185,0,0,0.0685185185185185,149.02777777777777,0)" xlink:href="#aG"/><use transform="matrix(0.0685185185185185,0,0,0.0685185185185185,157.18148148148148,0)" xlink:href="#Z"/><use transform="matrix(0.0685185185185185,0,0,0.0685185185185185,170.88518518518518,0)" xlink:href="#Y"/><use transform="matrix(0.0685185185185185,0,0,0.0685185185185185,180.47777777777773,0)" xlink:href="#af"/><use transform="matrix(0.0685185185185185,0,0,0.0685185185185185,195.48333333333332,0)" xlink:href="#Z"/><use transform="matrix(0.0685185185185185,0,0,0.0685185185185185,209.187037037037,0)" xlink:href="#aG"/></g><path d="M932 0L611-444 288 0H94l415-556-397-526h199l300 421 298-421h201L713-558 1133 0H932" id="aH"/><path d="M365-904c58-129 161-200 334-200 130 0 228 46 293 138s98 233 98 420c0 189-34 331-102 425S824 20 698 20c-170 0-275-64-336-184 0 55-3 116-9 164H179c5-68 6-147 6-223v-1261h180c-2 193 4 394-4 580h4zm283 791c221 0 256-197 256-427 0-229-34-425-254-425-236 0-285 195-285 441 0 237 53 411 283 411" id="aI"/><path d="M622-1349c296 4 497 117 497 404 0 282-193 424-485 431H353V0H162v-1349h460zm-15 684c195-3 320-88 320-277 0-184-129-255-328-254H353v531h254" id="aJ"/><g id="n"><use transform="matrix(0.011284722222222222,0,0,0.011284722222222222,0,0)" xlink:href="#av"/><use transform="matrix(0.011284722222222222,0,0,0.011284722222222222,13.86892361111111,0)" xlink:href="#aH"/><use transform="matrix(0.011284722222222222,0,0,0.011284722222222222,27.73784722222222,0)" xlink:href="#ak"/><use transform="matrix(0.011284722222222222,0,0,0.011284722222222222,41.60677083333333,0)" xlink:href="#aI"/><use transform="matrix(0.011284722222222222,0,0,0.011284722222222222,55.47569444444444,0)" xlink:href="#ak"/><use transform="matrix(0.011284722222222222,0,0,0.011284722222222222,69.34461805555556,0)" xlink:href="#an"/><use transform="matrix(0.011284722222222222,0,0,0.011284722222222222,83.21354166666667,0)" xlink:href="#aJ"/><use transform="matrix(0.011284722222222222,0,0,0.011284722222222222,97.08246527777777,0)" xlink:href="#am"/><use transform="matrix(0.011284722222222222,0,0,0.011284722222222222,110.95138888888891,0)" xlink:href="#al"/><use transform="matrix(0.011284722222222222,0,0,0.011284722222222222,124.82031250000001,0)" xlink:href="#ak"/><use transform="matrix(0.011284722222222222,0,0,0.011284722222222222,138.68923611111111,0)" xlink:href="#aw"/><use transform="matrix(0.011284722222222222,0,0,0.011284722222222222,152.55815972222223,0)" xlink:href="#am"/><use transform="matrix(0.011284722222222222,0,0,0.011284722222222222,166.42708333333334,0)" xlink:href="#ao"/><use transform="matrix(0.011284722222222222,0,0,0.011284722222222222,180.29600694444446,0)" xlink:href="#ap"/><use transform="matrix(0.011284722222222222,0,0,0.011284722222222222,194.16493055555554,0)" xlink:href="#aq"/></g><path d="M912-211c-10-84-18-177-18-274v-864h172V0H836L316-1130c7 79 16 167 16 254V0H162v-1349h222" id="aK"/><path d="M1034 0L896-382H333L196 0H0l510-1349h217L1228 0h-194zM847-531c-77-225-157-447-231-674-69 231-154 451-232 674h463" id="aL"/><g id="o"><use transform="matrix(0.011284722222222222,0,0,0.011284722222222222,0,0)" xlink:href="#am"/><use transform="matrix(0.011284722222222222,0,0,0.011284722222222222,13.86892361111111,0)" xlink:href="#at"/><use transform="matrix(0.011284722222222222,0,0,0.011284722222222222,27.73784722222222,0)" xlink:href="#ak"/><use transform="matrix(0.011284722222222222,0,0,0.011284722222222222,41.60677083333333,0)" xlink:href="#ax"/><use transform="matrix(0.011284722222222222,0,0,0.011284722222222222,55.47569444444444,0)" xlink:href="#ak"/><use transform="matrix(0.011284722222222222,0,0,0.011284722222222222,69.34461805555556,0)" xlink:href="#as"/><use transform="matrix(0.011284722222222222,0,0,0.011284722222222222,83.21354166666667,0)" xlink:href="#aw"/><use transform="matrix(0.011284722222222222,0,0,0.011284722222222222,97.08246527777777,0)" xlink:href="#am"/><use transform="matrix(0.011284722222222222,0,0,0.011284722222222222,110.95138888888891,0)" xlink:href="#an"/><use transform="matrix(0.011284722222222222,0,0,0.011284722222222222,124.82031250000001,0)" xlink:href="#aK"/><use transform="matrix(0.011284722222222222,0,0,0.011284722222222222,138.68923611111111,0)" xlink:href="#as"/><use transform="matrix(0.011284722222222222,0,0,0.011284722222222222,152.55815972222223,0)" xlink:href="#ar"/><use transform="matrix(0.011284722222222222,0,0,0.011284722222222222,166.42708333333334,0)" xlink:href="#am"/><use transform="matrix(0.011284722222222222,0,0,0.011284722222222222,180.29600694444446,0)" xlink:href="#aL"/><use transform="matrix(0.011284722222222222,0,0,0.011284722222222222,194.16493055555554,0)" xlink:href="#aI"/><use transform="matrix(0.011284722222222222,0,0,0.011284722222222222,208.0338541666667,0)" xlink:href="#am"/><use transform="matrix(0.011284722222222222,0,0,0.011284722222222222,221.90277777777783,0)" xlink:href="#ao"/><use transform="matrix(0.011284722222222222,0,0,0.011284722222222222,235.7717013888889,0)" xlink:href="#ap"/><use transform="matrix(0.011284722222222222,0,0,0.011284722222222222,249.64062500000003,0)" xlink:href="#aq"/></g><path d="M528 20c-247 0-343-132-343-381v-721h180v686c-4 177 45 284 224 277 194-8 279-136 279-336v-627h181c3 360-6 732 6 1082H885c-4-54-7-126-8-185h-3C809-64 714 20 528 20" id="aM"/><g id="p"><use transform="matrix(0.011284722222222222,0,0,0.011284722222222222,0,0)" xlink:href="#am"/><use transform="matrix(0.011284722222222222,0,0,0.011284722222222222,13.86892361111111,0)" xlink:href="#au"/><use transform="matrix(0.011284722222222222,0,0,0.011284722222222222,27.73784722222222,0)" xlink:href="#aM"/><use transform="matrix(0.011284722222222222,0,0,0.011284722222222222,41.60677083333333,0)" xlink:href="#am"/><use transform="matrix(0.011284722222222222,0,0,0.011284722222222222,55.47569444444444,0)" xlink:href="#aj"/><use transform="matrix(0.011284722222222222,0,0,0.011284722222222222,69.34461805555556,0)" xlink:href="#ak"/><use transform="matrix(0.011284722222222222,0,0,0.011284722222222222,83.21354166666667,0)" xlink:href="#aA"/><use transform="matrix(0.011284722222222222,0,0,0.011284722222222222,97.08246527777777,0)" xlink:href="#am"/><use transform="matrix(0.011284722222222222,0,0,0.011284722222222222,110.95138888888891,0)" xlink:href="#an"/><use transform="matrix(0.011284722222222222,0,0,0.011284722222222222,124.82031250000001,0)" xlink:href="#aJ"/><use transform="matrix(0.011284722222222222,0,0,0.011284722222222222,138.68923611111111,0)" xlink:href="#am"/><use transform="matrix(0.011284722222222222,0,0,0.011284722222222222,152.55815972222223,0)" xlink:href="#al"/><use transform="matrix(0.011284722222222222,0,0,0.011284722222222222,166.42708333333334,0)" xlink:href="#ak"/><use transform="matrix(0.011284722222222222,0,0,0.011284722222222222,180.29600694444446,0)" xlink:href="#aw"/><use transform="matrix(0.011284722222222222,0,0,0.011284722222222222,194.16493055555554,0)" xlink:href="#am"/><use transform="matrix(0.011284722222222222,0,0,0.011284722222222222,208.0338541666667,0)" xlink:href="#ao"/><use transform="matrix(0.011284722222222222,0,0,0.011284722222222222,221.90277777777783,0)" xlink:href="#ap"/><use transform="matrix(0.011284722222222222,0,0,0.011284722222222222,235.7717013888889,0)" xlink:href="#aq"/></g><g id="q"><use transform="matrix(0.011284722222222222,0,0,0.011284722222222222,0,0)" xlink:href="#ar"/><use transform="matrix(0.011284722222222222,0,0,0.011284722222222222,13.86892361111111,0)" xlink:href="#as"/><use transform="matrix(0.011284722222222222,0,0,0.011284722222222222,27.73784722222222,0)" xlink:href="#ak"/><use transform="matrix(0.011284722222222222,0,0,0.011284722222222222,41.60677083333333,0)" xlink:href="#at"/><use transform="matrix(0.011284722222222222,0,0,0.011284722222222222,55.47569444444444,0)" xlink:href="#ap"/></g><g id="r"><use transform="matrix(0.0685185185185185,0,0,0.0685185185185185,0,0)" xlink:href="#L"/><use transform="matrix(0.0685185185185185,0,0,0.0685185185185185,14.388888888888886,0)" xlink:href="#L"/><use transform="matrix(0.0685185185185185,0,0,0.0685185185185185,28.77777777777777,0)" xlink:href="#M"/><use transform="matrix(0.0685185185185185,0,0,0.0685185185185185,34.190740740740736,0)" xlink:href="#N"/><use transform="matrix(0.0685185185185185,0,0,0.0685185185185185,47.89444444444444,0)" xlink:href="#O"/><use transform="matrix(0.0685185185185185,0,0,0.0685185185185185,54.746296296296286,0)" xlink:href="#P"/><use transform="matrix(0.0685185185185185,0,0,0.0685185185185185,68.44999999999999,0)" xlink:href="#Q"/><use transform="matrix(0.0685185185185185,0,0,0.0685185185185185,76.60370370370369,0)" xlink:href="#R"/><use transform="matrix(0.0685185185185185,0,0,0.0685185185185185,83.45555555555553,0)" xlink:href="#S"/><use transform="matrix(0.0685185185185185,0,0,0.0685185185185185,97.15925925925923,0)" xlink:href="#T"/><use transform="matrix(0.0685185185185185,0,0,0.0685185185185185,109.49259259259256,0)" xlink:href="#P"/><use transform="matrix(0.0685185185185185,0,0,0.0685185185185185,123.19629629629625,0)" xlink:href="#U"/><use transform="matrix(0.0685185185185185,0,0,0.0685185185185185,137.58518518518514,0)" xlink:href="#U"/></g><path fill="#333" d="M240-174c0 40-23 61-54 70L253 0h-59l-57-94H76V0H24v-248c93 4 217-23 216 74zM76-134c48-2 112 12 112-38 0-48-66-32-112-35v73" id="aN"/><path fill="#333" d="M85 4C-2 5 27-109 22-190h50c7 57-23 150 33 157 60-5 35-97 40-157h50l1 190h-47c-2-12 1-28-3-38-12 25-28 42-61 42" id="aO"/><path fill="#333" d="M230 0l2-204L168 0h-37L68-204 70 0H24v-248h70l56 185 57-185h69V0h-46" id="aP"/><path fill="#333" d="M137-138c1-29-70-34-71-4 15 46 118 7 119 86 1 83-164 76-172 9l43-7c4 19 20 25 44 25 33 8 57-30 24-41C81-84 22-81 20-136c-2-80 154-74 161-7" id="aQ"/><g id="s"><use transform="matrix(0.0685185185185185,0,0,0.0685185185185185,0,0)" xlink:href="#aN"/><use transform="matrix(0.0685185185185185,0,0,0.0685185185185185,17.746296296296293,0)" xlink:href="#Z"/><use transform="matrix(0.0685185185185185,0,0,0.0685185185185185,31.449999999999996,0)" xlink:href="#W"/><use transform="matrix(0.0685185185185185,0,0,0.0685185185185185,46.45555555555555,0)" xlink:href="#Y"/><use transform="matrix(0.0685185185185185,0,0,0.0685185185185185,56.048148148148144,0)" xlink:href="#ac"/><use transform="matrix(0.0685185185185185,0,0,0.0685185185185185,71.05370370370369,0)" xlink:href="#aE"/><use transform="matrix(0.0685185185185185,0,0,0.0685185185185185,86.05925925925925,0)" xlink:href="#aO"/><use transform="matrix(0.0685185185185185,0,0,0.0685185185185185,101.06481481481481,0)" xlink:href="#aG"/><use transform="matrix(0.0685185185185185,0,0,0.0685185185185185,109.21851851851851,0)" xlink:href="#ac"/><use transform="matrix(0.0685185185185185,0,0,0.0685185185185185,124.22407407407405,0)" xlink:href="#Y"/><use transform="matrix(0.0685185185185185,0,0,0.0685185185185185,133.81666666666663,0)" xlink:href="#aP"/><use transform="matrix(0.0685185185185185,0,0,0.0685185185185185,154.3037037037037,0)" xlink:href="#aO"/><use transform="matrix(0.0685185185185185,0,0,0.0685185185185185,169.30925925925922,0)" xlink:href="#aQ"/><use transform="matrix(0.0685185185185185,0,0,0.0685185185185185,183.01296296296292,0)" xlink:href="#ag"/><use transform="matrix(0.0685185185185185,0,0,0.0685185185185185,189.86481481481476,0)" xlink:href="#ah"/><use transform="matrix(0.0685185185185185,0,0,0.0685185185185185,203.56851851851846,0)" xlink:href="#X"/><use transform="matrix(0.0685185185185185,0,0,0.0685185185185185,217.27222222222215,0)" xlink:href="#aa"/></g><g id="t"><use transform="matrix(0.011284722222222222,0,0,0.011284722222222222,0,0)" xlink:href="#au"/><use transform="matrix(0.011284722222222222,0,0,0.011284722222222222,13.86892361111111,0)" xlink:href="#as"/><use transform="matrix(0.011284722222222222,0,0,0.011284722222222222,27.73784722222222,0)" xlink:href="#ax"/><use transform="matrix(0.011284722222222222,0,0,0.011284722222222222,41.60677083333333,0)" xlink:href="#am"/><use transform="matrix(0.011284722222222222,0,0,0.011284722222222222,55.47569444444444,0)" xlink:href="#an"/><use transform="matrix(0.011284722222222222,0,0,0.011284722222222222,69.34461805555556,0)" xlink:href="#ao"/><use transform="matrix(0.011284722222222222,0,0,0.011284722222222222,83.21354166666667,0)" xlink:href="#ap"/><use transform="matrix(0.011284722222222222,0,0,0.011284722222222222,97.08246527777777,0)" xlink:href="#aq"/></g><path d="M698-1104c312 3 392 244 392 558 0 315-82 566-392 566-169 0-277-65-331-184h-5c8 188 2 394 4 589H185V-858c0-76-1-156-6-224h175c6 52 9 120 10 178h4c58-122 150-202 330-200zm-49 991c225 0 255-203 255-433 0-225-32-419-253-419-236 0-285 192-285 441 0 237 53 411 283 411" id="aR"/><path d="M873-819c-18-114-119-146-250-146-163 0-245 50-245 151 0 151 170 148 294 185 182 54 388 94 388 320 0 240-189 325-439 329-245 4-410-69-454-268l159-31c24 133 136 168 295 165 144-2 270-31 270-171 0-164-195-160-331-202-167-52-350-87-350-299 0-218 173-315 413-313 220 2 373 77 412 260" id="aS"/><g id="u"><use transform="matrix(0.011284722222222222,0,0,0.011284722222222222,0,0)" xlink:href="#aR"/><use transform="matrix(0.011284722222222222,0,0,0.011284722222222222,13.86892361111111,0)" xlink:href="#am"/><use transform="matrix(0.011284722222222222,0,0,0.011284722222222222,27.73784722222222,0)" xlink:href="#aM"/><use transform="matrix(0.011284722222222222,0,0,0.011284722222222222,41.60677083333333,0)" xlink:href="#aS"/><use transform="matrix(0.011284722222222222,0,0,0.011284722222222222,55.47569444444444,0)" xlink:href="#am"/><use transform="matrix(0.011284722222222222,0,0,0.011284722222222222,69.34461805555556,0)" xlink:href="#an"/><use transform="matrix(0.011284722222222222,0,0,0.011284722222222222,83.21354166666667,0)" xlink:href="#ao"/><use transform="matrix(0.011284722222222222,0,0,0.011284722222222222,97.08246527777777,0)" xlink:href="#ap"/><use transform="matrix(0.011284722222222222,0,0,0.011284722222222222,110.95138888888891,0)" xlink:href="#aq"/></g><path d="M285-1169c8 382 2 780 4 1169H129v-1349h237c86 239 188 461 253 720 69-258 169-481 255-720h225V0H937c2-390-5-788 6-1169-75 255-170 488-259 729H547c-90-240-185-475-262-729" id="aT"/><g id="v"><use transform="matrix(0.011284722222222222,0,0,0.011284722222222222,0,0)" xlink:href="#aS"/><use transform="matrix(0.011284722222222222,0,0,0.011284722222222222,13.86892361111111,0)" xlink:href="#av"/><use transform="matrix(0.011284722222222222,0,0,0.011284722222222222,27.73784722222222,0)" xlink:href="#aj"/><use transform="matrix(0.011284722222222222,0,0,0.011284722222222222,41.60677083333333,0)" xlink:href="#av"/><use transform="matrix(0.011284722222222222,0,0,0.011284722222222222,55.47569444444444,0)" xlink:href="#ax"/><use transform="matrix(0.011284722222222222,0,0,0.011284722222222222,69.34461805555556,0)" xlink:href="#ak"/><use transform="matrix(0.011284722222222222,0,0,0.011284722222222222,83.21354166666667,0)" xlink:href="#as"/><use transform="matrix(0.011284722222222222,0,0,0.011284722222222222,97.08246527777777,0)" xlink:href="#aw"/><use transform="matrix(0.011284722222222222,0,0,0.011284722222222222,110.95138888888891,0)" xlink:href="#am"/><use transform="matrix(0.011284722222222222,0,0,0.011284722222222222,124.82031250000001,0)" xlink:href="#an"/><use transform="matrix(0.011284722222222222,0,0,0.011284722222222222,138.68923611111111,0)" xlink:href="#aT"/><use transform="matrix(0.011284722222222222,0,0,0.011284722222222222,152.55815972222223,0)" xlink:href="#aM"/><use transform="matrix(0.011284722222222222,0,0,0.011284722222222222,166.42708333333334,0)" xlink:href="#aS"/><use transform="matrix(0.011284722222222222,0,0,0.011284722222222222,180.29600694444446,0)" xlink:href="#ak"/><use transform="matrix(0.011284722222222222,0,0,0.011284722222222222,194.16493055555554,0)" xlink:href="#ax"/><use transform="matrix(0.011284722222222222,0,0,0.011284722222222222,208.0338541666667,0)" xlink:href="#am"/><use transform="matrix(0.011284722222222222,0,0,0.011284722222222222,221.90277777777783,0)" xlink:href="#ao"/><use transform="matrix(0.011284722222222222,0,0,0.011284722222222222,235.7717013888889,0)" xlink:href="#ap"/><use transform="matrix(0.011284722222222222,0,0,0.011284722222222222,249.64062500000003,0)" xlink:href="#aq"/></g><path fill="#333" d="M24-248c93 1 206-16 204 79-1 75-69 88-152 82V0H24v-248zm52 121c47 0 100 7 100-41 0-47-54-39-100-39v80" id="aU"/><g id="w"><use transform="matrix(0.0685185185185185,0,0,0.0685185185185185,0,0)" xlink:href="#aF"/><use transform="matrix(0.0685185185185185,0,0,0.0685185185185185,6.85185185185185,0)" xlink:href="#aU"/><use transform="matrix(0.0685185185185185,0,0,0.0685185185185185,23.29629629629629,0)" xlink:href="#ac"/><use transform="matrix(0.0685185185185185,0,0,0.0685185185185185,38.30185185185185,0)" xlink:href="#aE"/></g><g id="x"><use transform="matrix(0.0685185185185185,0,0,0.0685185185185185,0,0)" xlink:href="#aB"/><use transform="matrix(0.0685185185185185,0,0,0.0685185185185185,17.746296296296293,0)" xlink:href="#X"/><use transform="matrix(0.0685185185185185,0,0,0.0685185185185185,31.449999999999996,0)" xlink:href="#aC"/><use transform="matrix(0.0685185185185185,0,0,0.0685185185185185,45.1537037037037,0)" xlink:href="#Z"/><use transform="matrix(0.0685185185185185,0,0,0.0685185185185185,58.8574074074074,0)" xlink:href="#aD"/><use transform="matrix(0.0685185185185185,0,0,0.0685185185185185,73.86296296296295,0)" xlink:href="#X"/><use transform="matrix(0.0685185185185185,0,0,0.0685185185185185,87.56666666666665,0)" xlink:href="#aE"/><use transform="matrix(0.0685185185185185,0,0,0.0685185185185185,102.5722222222222,0)" xlink:href="#ac"/><use transform="matrix(0.0685185185185185,0,0,0.0685185185185185,117.57777777777775,0)" xlink:href="#Y"/><use transform="matrix(0.0685185185185185,0,0,0.0685185185185185,127.17037037037035,0)" xlink:href="#aF"/><use transform="matrix(0.0685185185185185,0,0,0.0685185185185185,134.0222222222222,0)" xlink:href="#af"/><use transform="matrix(0.0685185185185185,0,0,0.0685185185185185,149.02777777777777,0)" xlink:href="#aG"/><use transform="matrix(0.0685185185185185,0,0,0.0685185185185185,157.18148148148148,0)" xlink:href="#Z"/><use transform="matrix(0.0685185185185185,0,0,0.0685185185185185,170.88518518518518,0)" xlink:href="#Y"/><use transform="matrix(0.0685185185185185,0,0,0.0685185185185185,180.47777777777773,0)" xlink:href="#af"/><use transform="matrix(0.0685185185185185,0,0,0.0685185185185185,195.48333333333332,0)" xlink:href="#Z"/><use transform="matrix(0.0685185185185185,0,0,0.0685185185185185,209.187037037037,0)" xlink:href="#aG"/></g><path fill="#333" d="M123 10C108 53 80 86 19 72V37c35 8 53-11 59-39L3-190h52l48 148c12-52 28-100 44-148h51" id="aV"/><g id="y"><use transform="matrix(0.0685185185185185,0,0,0.0685185185185185,0,0)" xlink:href="#aP"/><use transform="matrix(0.0685185185185185,0,0,0.0685185185185185,20.487037037037034,0)" xlink:href="#aV"/><use transform="matrix(0.0685185185185185,0,0,0.0685185185185185,34.190740740740736,0)" xlink:href="#aF"/><use transform="matrix(0.0685185185185185,0,0,0.0685185185185185,41.042592592592584,0)" xlink:href="#W"/><use transform="matrix(0.0685185185185185,0,0,0.0685185185185185,56.04814814814814,0)" xlink:href="#ab"/><use transform="matrix(0.0685185185185185,0,0,0.0685185185185185,71.05370370370369,0)" xlink:href="#ac"/><use transform="matrix(0.0685185185185185,0,0,0.0685185185185185,86.05925925925925,0)" xlink:href="#af"/><use transform="matrix(0.0685185185185185,0,0,0.0685185185185185,101.06481481481481,0)" xlink:href="#Z"/></g><path fill="#333" d="M67-125c0 54 23 88 75 88 28 0 53-7 68-21v-34h-60v-39h108v91C232-14 192 4 140 4 58 4 20-42 15-125 8-236 126-280 215-234c19 10 29 26 37 47l-47 15c-11-23-29-39-63-39-53 1-75 33-75 86" id="aW"/><g id="z"><use transform="matrix(0.0685185185185185,0,0,0.0685185185185185,0,0)" xlink:href="#ad"/><use transform="matrix(0.0685185185185185,0,0,0.0685185185185185,13.155555555555553,0)" xlink:href="#Z"/><use transform="matrix(0.0685185185185185,0,0,0.0685185185185185,26.859259259259254,0)" xlink:href="#aa"/><use transform="matrix(0.0685185185185185,0,0,0.0685185185185185,33.7111111111111,0)" xlink:href="#Z"/><use transform="matrix(0.0685185185185185,0,0,0.0685185185185185,47.414814814814804,0)" xlink:href="#ae"/><use transform="matrix(0.0685185185185185,0,0,0.0685185185185185,55.5685185185185,0)" xlink:href="#ac"/><use transform="matrix(0.0685185185185185,0,0,0.0685185185185185,70.57407407407405,0)" xlink:href="#af"/><use transform="matrix(0.0685185185185185,0,0,0.0685185185185185,85.57962962962961,0)" xlink:href="#ag"/><use transform="matrix(0.0685185185185185,0,0,0.0685185185185185,92.43148148148146,0)" xlink:href="#ah"/><use transform="matrix(0.0685185185185185,0,0,0.0685185185185185,106.13518518518515,0)" xlink:href="#ac"/><use transform="matrix(0.0685185185185185,0,0,0.0685185185185185,121.14074074074071,0)" xlink:href="#aW"/><use transform="matrix(0.0685185185185185,0,0,0.0685185185185185,140.3259259259259,0)" xlink:href="#Z"/><use transform="matrix(0.0685185185185185,0,0,0.0685185185185185,154.0296296296296,0)" xlink:href="#af"/><use transform="matrix(0.0685185185185185,0,0,0.0685185185185185,169.03518518518516,0)" xlink:href="#Z"/><use transform="matrix(0.0685185185185185,0,0,0.0685185185185185,182.73888888888885,0)" xlink:href="#Y"/><use transform="matrix(0.0685185185185185,0,0,0.0685185185185185,192.33148148148146,0)" xlink:href="#ag"/><use transform="matrix(0.0685185185185185,0,0,0.0685185185185185,199.18333333333328,0)" xlink:href="#ah"/><use transform="matrix(0.0685185185185185,0,0,0.0685185185185185,212.88703703703698,0)" xlink:href="#ac"/></g></defs></g></svg>